SplineFontDB: 3.0
FontName: Valley
FullName: Valley
FamilyName: Valley
Weight: Regular
Copyright: Created by trashman with FontForge 2.0 (http://fontforge.sf.net)
UComments: "Scan 6400, cut 1100, scale 89%" 
Version: 001.000
ItalicAngle: 0
UnderlinePosition: -100
UnderlineWidth: 50
Ascent: 630
Descent: 370
LayerCount: 3
Layer: 0 0 "Back"  1
Layer: 1 0 "Fore"  0
Layer: 2 0 "backup"  0
NeedsXUIDChange: 1
XUID: [1021 658 797806517 11561335]
OS2Version: 0
OS2_WeightWidthSlopeOnly: 0
OS2_UseTypoMetrics: 1
CreationTime: 1286180940
ModificationTime: 1289202612
OS2TypoAscent: 0
OS2TypoAOffset: 1
OS2TypoDescent: 0
OS2TypoDOffset: 1
OS2TypoLinegap: 0
OS2WinAscent: 0
OS2WinAOffset: 1
OS2WinDescent: 0
OS2WinDOffset: 1
HheadAscent: 0
HheadAOffset: 1
HheadDescent: 0
HheadDOffset: 1
OS2Vendor: 'PfEd'
MarkAttachClasses: 1
DEI: 91125
Encoding: UnicodeBmp
UnicodeInterp: none
NameList: Adobe Glyph List
DisplaySize: -48
AntiAlias: 1
FitToEm: 1
WinInfo: 88 11 5
BeginPrivate: 6
BlueValues 7 [-23 0]
BlueScale 8 0.039625
StdHW 4 [37]
StemSnapH 35 [23 27 31 33 37 42 46 54 79 88 118]
StdVW 4 [80]
StemSnapV 4 [80]
EndPrivate
BeginChars: 65536 64

StartChar: a
Encoding: 97 97 0
Width: 428
VWidth: 0
Flags: HW
HStem: -12 38<135.579 227.5 365.733 405.98> 198 28<158.68 283.442> 359 29<148.051 252.065>
VStem: 29 88<40.6778 165.139> 57 72<268.853 342.092> 284 75<65.242 191.005 217.057 331.311>
LayerCount: 3
Fore
SplineSet
275 188 m 0xf4
 255 193 232 198 208 198 c 0
 153 198 117 158 117 106 c 0
 117 68 130 26 178 26 c 0
 234 26 284 73 284 117 c 2
 284 175 l 2
 284 187 284 186 275 188 c 0xf4
359 226 m 2
 359 83 l 2
 359 31 379 28 402 24 c 0
 406 23 406 18 406 10 c 0
 406 1 406 -6 396 -6 c 0
 340 -6 294 -5 285 44 c 0
 283 54 283 54 277 47 c 0
 262 29 222 -12 155 -12 c 0
 90 -12 29 32 29 99 c 0xf4
 29 176 101 226 186 226 c 0
 217 226 253 219 273 215 c 0
 284 212 284 212 284 224 c 0
 284 320 270 359 198 359 c 0
 153 359 132 338 129 313 c 0
 125 284 118 265 89 265 c 0
 72 265 57 276 57 297 c 0xec
 57 347 133 388 200 388 c 0
 313 388 359 349 359 226 c 2
EndSplineSet
EndChar

StartChar: b
Encoding: 98 98 1
Width: 472
VWidth: 0
Flags: HW
HStem: -20 41<207.108 324.357> -13 21G<90.5 145.5> 352 27<228.397 317.286> 551 32<14.0261 87.9975>
VStem: 84 72<-13 34.3208> 89 77<64.0893 289.114 323.001 551> 364 88<80.9717 288.929>
LayerCount: 3
Fore
SplineSet
141 -13 m 2x7a
 97 -13 l 2
 84 -13 84 -3 84 5 c 2x7a
 84 5 89 43 89 267 c 2
 89 524 l 2x76
 89 536 86 551 72 551 c 2
 20 551 l 2
 17 551 14 560 14 568 c 0
 14 578 18 583 23 583 c 0
 42 583 117 581 156 581 c 0
 170 581 170 576 170 566 c 2
 164 329 l 2
 164 325 164 323 165 323 c 0
 167 323 171 327 180 336 c 0
 198 354 236 379 286 379 c 0
 383 379 452 303 452 191 c 0
 452 45 365 -20 280 -20 c 0xba
 217 -20 181 17 167 34 c 0
 162 41 158 38 157 24 c 2
 156 1 l 2
 155 -13 150 -13 141 -13 c 2x7a
166 183 m 0xb6
 166 89 183 21 270 21 c 0
 350 21 364 105 364 192 c 0
 364 263 351 352 273 352 c 0
 202 352 166 273 166 183 c 0xb6
EndSplineSet
EndChar

StartChar: c
Encoding: 99 99 2
Width: 386
VWidth: -4
Flags: HW
HStem: -15 37<168.525 281.681> 358 28<169.03 259.895>
VStem: 24 87<90.0698 280.939> 269 79<286.914 348.547>
LayerCount: 3
Fore
SplineSet
24 184 m 0
 24 308 114 386 223 386 c 0
 270 386 348 357 348 305 c 0
 348 286 334 276 321 276 c 0
 287 276 277 303 269 328 c 0
 263 345 252 358 224 358 c 0
 136 358 111 282 111 203 c 0
 111 130 130 22 227 22 c 0
 273 22 315 60 332 103 c 0
 337 114 346 118 357 113 c 0
 365 109 368 105 368 100 c 0
 368 93 364 85 360 77 c 0
 343 37 288 -15 220 -15 c 0
 106 -15 24 70 24 184 c 0
EndSplineSet
EndChar

StartChar: d
Encoding: 100 100 3
Width: 578
VWidth: 0
Flags: HW
HStem: -22 37<186.868 296.39 466.792 554.614> 421 35<190.998 299.691> 663 30<295.745 366> 665 37<267.007 332.394>
VStem: 27 105<106.005 320.758> 372 94<364.109 660.122> 376 8<-4 69> 380 80<17.6841 69 108.848 334.471 364 607.369>
LayerCount: 3
Fore
SplineSet
384 69 m 1xea
 384 68 316 -22 225 -22 c 0
 112 -22 27 89 27 204 c 0
 27 331 95 456 236 456 c 0
 324 456 379 364 379 364 c 1
 379 364 374 514 372 612 c 0
 371 642 370 661 333 663 c 0xec
 320 664 311 664 295 665 c 0
 277 666 267 665 267 684 c 0
 267 697 270 701 280 701 c 0xdc
 292 701 350 691 443 691 c 0
 459 691 466 691 466 678 c 0
 466 675 465 642 464 624 c 0
 459 486 458 323 458 164 c 2
 458 102 l 2
 458 61 460 19 483 14 c 0
 492 12 504 10 519 10 c 0
 552 10 555 8 555 -9 c 0
 555 -24 544 -26 529 -26 c 0
 512 -26 418 -15 397 -15 c 0
 380 -15 376 -12 376 -4 c 0
 376 -1 382 48 384 69 c 1xea
132 212 m 0
 132 123 147 15 242 15 c 0
 330 15 380 118 380 214 c 0xc9
 380 311 345 421 243 421 c 0
 151 421 132 304 132 212 c 0
EndSplineSet
EndChar

StartChar: e
Encoding: 101 101 4
Width: 410
VWidth: 3
Flags: HW
HStem: -15 36<174.706 289.859> 190 30<117.002 293.998> 357 34<160.323 257.058>
VStem: 28 89<93.7485 291.639> 294 87<200.5 302.354>
LayerCount: 3
Fore
SplineSet
27 188 m 0
 27 325 121 389 210 389 c 0
 284 389 377 334 377 205 c 0
 377 196 371 193 357 193 c 2
 127 192 l 2
 116 192 116 187 116 176 c 0
 116 100 148 25 226 25 c 0
 268 25 306 48 332 79 c 0
 342 92 350 99 354 99 c 0
 361 99 373 91 373 82 c 0
 373 76 365 67 361 62 c 0
 336 31 285 -13 218 -13 c 0
 108 -13 27 72 27 188 c 0
285 221 m 2
 291 221 294 223 294 231 c 0
 294 276 281 357 211 357 c 0
 135 357 119 274 119 230 c 0
 119 224 120 220 128 220 c 2
 285 221 l 2
EndSplineSet
EndChar

StartChar: f
Encoding: 102 102 6
Width: 323
VWidth: 0
Flags: HW
HStem: -6.5856 30.4584<14.0277 100.95 188.361 267.449> 2.4696 25.5192<36.1191 102.67 186.695 248.632> 332.573 30.4584<20.5842 105.37 180.281 287.294> 565.538 29.6352<193.885 244.148>
VStem: 105.37 74.9112<30.3474 333.396 362.208 524.164> 247.783 68.3256<491.076 563.665>
LayerCount: 3
Fore
SplineSet
245 534 m 0x7c
 245 553 242 567 224 567 c 0
 188 567 183 518 183 452 c 2
 183 385 l 2
 183 368 187 367 200 367 c 2
 265 367 l 2
 284 367 287 365 287 352 c 0
 287 340 287 333 268 333 c 2
 200 333 l 2
 183 333 183 329 183 317 c 2
 183 63 l 2
 183 33 197 30 217 30 c 2
 255 30 l 2
 267 30 268 22 268 12 c 0
 268 -3 263 -3 251 -3 c 0xbc
 221 -3 178 0 143 0 c 0
 103 0 50 -3 35 -3 c 0
 19 -3 14 1 14 13 c 0
 14 23 18 30 32 30 c 2
 83 30 l 2
 101 30 103 38 103 66 c 2
 103 317 l 2
 103 332 102 333 84 333 c 2
 35 333 l 2
 21 333 21 339 21 352 c 0
 21 365 28 367 36 367 c 2
 84 367 l 2
 103 367 104 368 104 386 c 2
 104 447 l 2
 104 519 145 597 226 597 c 0
 282 597 317 569 317 525 c 0
 317 494 303 482 282 482 c 0
 252 482 245 507 245 534 c 0x7c
EndSplineSet
EndChar

StartChar: g
Encoding: 103 103 7
Width: 525
VWidth: 0
Flags: HW
HStem: -238 27<146.317 312.641> -11 79<133.669 390.127> 131 23<187.002 272.797> 409 39<409.304 479.5> 432 27<187.44 276.631>
VStem: 17 63<-167.114 -64.3101> 20 33<56 141.588> 59 85<222.663 370.167> 324 84<209.989 379.902> 431 47<-144.55 -44.709> 465 59<361.66 408.439>
LayerCount: 3
Fore
SplineSet
20 82 m 0xf280
 20 133 46 159 69 172 c 0
 89 183 108 186 108 186 c 1
 108 186 59 232 59 298 c 0
 59 383 140 459 251 459 c 0xeb80
 302 459 345 422 365 402 c 0
 374 393 372 395 383 405 c 0
 397 418 424 447 462 447 c 0
 493 447 524 429 524 399 c 0
 524 376 508 361 491 361 c 0
 481 361 471 365 465 380 c 0
 460 394 455 409 441 409 c 0
 425 409 410 396 398 384 c 0
 390 376 388 373 388 370 c 0
 388 368 401 342 404 326 c 0
 407 313 408 298 408 286 c 0
 408 204 338 131 242 131 c 0
 184 131 144 154 124 170 c 1
 124 170 107 168 91 161 c 0
 73 153 53 137 53 116 c 0xf3a0
 53 77 93 73 130 70 c 0
 157 68 187 68 217 68 c 2
 224 68 l 2
 254 68 362 67 411 45 c 0
 450 28 478 -9 478 -64 c 0
 478 -201 340 -238 226 -238 c 0
 115 -238 17 -198 17 -114 c 0xf4c0
 17 -71 65 -36 98 -21 c 0
 107 -17 111 -15 111 -13 c 0
 111 -11 104 -9 93 -5 c 0
 64 5 20 30 20 82 c 0xf280
137 -30 m 0
 101 -57 80 -72 80 -112 c 0
 80 -178 151 -211 212 -211 c 0
 302 -211 431 -178 431 -93 c 0xe4c0
 431 -15 321 -11 244 -11 c 2
 202 -11 l 2
 179 -11 160 -13 137 -30 c 0
234 432 m 0xe980
 162 432 144 362 144 296 c 0
 144 224 158 154 228 154 c 0
 305 154 324 230 324 298 c 0
 324 358 302 432 234 432 c 0xe980
EndSplineSet
EndChar

StartChar: h
Encoding: 104 104 8
Width: 624
VWidth: 0
Flags: HW
HStem: -6 35<17.351 105.391 206.762 278.837 347.006 432.901 529.588 609.947> 421 39<322.602 419.463> 666 40<17.0581 109.92> 666 32<31.3782 108.625>
VStem: 112 90<33.1514 321.852 338 591.162> 116 94<255.094 692> 436 90<31.9963 407.484>
LayerCount: 3
Fore
SplineSet
591 27 m 0xd6
 605 26 608 23 608 9 c 0
 608 -4 597 -5 587 -5 c 2
 578 -5 l 2
 570 -5 522 0 480 0 c 0
 432 0 367 -5 362 -5 c 0
 355 -5 347 -3 347 12 c 0
 347 21 349 28 370 29 c 0
 382 30 401 31 410 32 c 0
 426 33 436 44 436 63 c 2
 436 350 l 2
 436 395 419 420 376 420 c 0
 342 420 303 399 277 378 c 0
 233 342 202 298 202 255 c 2
 202 60 l 2
 202 42 207 31 222 29 c 0
 230 28 246 26 255 26 c 0
 272 26 279 22 279 11 c 0
 279 -1 273 -3 255 -3 c 0
 243 -3 196 2 152 2 c 0
 110 2 58 -3 40 -3 c 0
 27 -3 17 -1 17 14 c 0
 17 26 25 29 35 29 c 0
 42 29 61 30 67 30 c 0
 99 32 111 32 112 70 c 0xda
 115 285 116 406 116 618 c 0
 116 640 107 666 84 666 c 2
 28 666 l 2
 20 666 17 675 17 684 c 0
 17 695 22 706 30 706 c 0xe6
 42 706 103 699 159 699 c 0
 173 699 188 699 203 700 c 0
 206 700 210 694 210 690 c 0
 207 551 198 336 198 336 c 1
 226 372 295 458 416 458 c 0
 473 458 526 440 526 371 c 2
 526 60 l 2
 526 34 530 31 554 29 c 0
 562 28 571 28 591 27 c 0xd6
EndSplineSet
EndChar

StartChar: i
Encoding: 105 105 9
Width: 292
VWidth: 0
Flags: HW
HStem: -3 33<27.0076 111.236 193.208 264.997> 344 30<24.0587 112.303> 480 100<106.438 189.562>
VStem: 98 100<488.438 571.562> 113 80<30.5756 344>
LayerCount: 3
Fore
SplineSet
98 530 m 0xf0
 98 558 120 580 148 580 c 0
 176 580 198 558 198 530 c 0
 198 502 176 480 148 480 c 0
 120 480 98 502 98 530 c 0xf0
193 52 m 2xe8
 193 30 201 30 214 30 c 2
 255 30 l 2
 263 30 265 24 265 14 c 0
 265 4 264 -3 249 -3 c 0
 241 -3 179 0 153 0 c 0
 131 0 51 -3 43 -3 c 0
 27 -3 27 5 27 12 c 0
 27 18 27 30 40 30 c 2
 74 30 l 2
 103 30 113 31 113 64 c 2
 113 318 l 2
 113 332 111 344 97 344 c 2
 32 344 l 2
 25 344 24 354 24 362 c 0
 24 371 24 376 31 376 c 0
 36 376 111 374 157 374 c 2
 182 374 l 2
 189 374 194 373 194 365 c 0
 194 260 193 223 193 165 c 2
 193 52 l 2xe8
EndSplineSet
EndChar

StartChar: j
Encoding: 106 106 10
Width: 292
VWidth: 0
Flags: HW
HStem: 344 30<29.1925 129.675> 472 105<121.609 206.391>
VStem: 111 106<482.609 566.752> 132 80<-131.78 343.353>
LayerCount: 3
Fore
SplineSet
111 525 m 0xe0
 111 554 135 577 164 577 c 0
 193 577 217 554 217 525 c 0
 217 496 193 472 164 472 c 0
 135 472 111 496 111 525 c 0xe0
132 313 m 2xd0
 132 333 125 344 102 344 c 2
 40 344 l 2
 33 344 29 354 29 362 c 0
 29 372 31 376 38 376 c 0
 65 376 111 374 161 374 c 2
 207 374 l 2
 212 374 215 369 215 365 c 0
 215 355 212 292 212 260 c 2
 212 -70 l 2
 212 -100 212 -99 201 -117 c 0
 169 -169 80 -229 53 -229 c 0
 40 -229 26 -212 26 -197 c 0
 26 -192 29 -190 38 -186 c 0
 83 -162 132 -141 132 -65 c 2
 132 313 l 2xd0
EndSplineSet
EndChar

StartChar: k
Encoding: 107 107 11
Width: 468
VWidth: 0
Flags: HW
HStem: -3 37<165.666 231.762> -3 33<14.0592 87.7821 391.129 449.895> 192 18<166.023 193.33> 338 32<227.516 274.996 318.473 427.407> 347 26<217.028 273.168> 556 33<17.0266 90.7772>
VStem: 88 77<34.2388 191.656 209.954 453.241> 91 84<331.37 555.95>
DStem2: 229 252 261 251 0.56706 0.823676<-7.6186 87.7056> 387 51 291 63 0.60368 -0.797227<-231.191 -43.2548>
LayerCount: 3
Fore
SplineSet
320 370 m 0x36
 351 370 387 373 407 373 c 0x2e
 420 373 428 373 428 361 c 0
 428 342 418 337 398 337 c 2
 363 337 l 2
 344 337 328 336 318 326 c 0
 292 298 278 276 261 251 c 0
 250 236 249 233 256 224 c 2
 387 51 l 2
 402 31 413 29 439 26 c 0
 449 25 450 20 450 9 c 0
 450 2 448 -3 438 -3 c 0
 411 -3 380 0 354 0 c 0
 332 0 291 -3 270 -3 c 0x76
 260 -3 257 0 257 14 c 0
 257 37 300 20 300 39 c 0
 300 47 296 56 291 63 c 2
 208 177 l 2
 199 189 195 192 190 192 c 0
 186 192 181 190 174 188 c 0
 165 185 165 184 165 171 c 2
 165 71 l 2
 165 50 166 39 174 34 c 0
 195 21 232 37 232 13 c 0
 232 -3 224 -3 220 -3 c 0xa6
 195 -3 157 0 128 0 c 0
 94 0 60 -3 27 -3 c 0
 19 -3 14 3 14 11 c 0
 14 24 17 30 32 30 c 2
 62 30 l 2
 88 30 88 33 88 59 c 2x66
 91 531 l 2
 91 552 89 556 65 556 c 2
 28 556 l 2
 20 556 17 560 17 574 c 0
 17 586 21 589 31 589 c 0
 60 589 125 588 167 588 c 0
 174 588 175 582 175 578 c 0x65
 175 550 165 252 165 215 c 0
 165 209 168 209 173 210 c 0
 196 215 220 239 229 252 c 0
 242 270 252 287 271 315 c 0
 274 319 275 323 275 327 c 0
 275 335 269 341 260 342 c 0
 249 344 238 345 227 347 c 0
 217 349 217 357 217 362 c 0
 217 369 220 373 228 373 c 0x6e
 231 373 260 370 320 370 c 0x36
EndSplineSet
EndChar

StartChar: l
Encoding: 108 108 12
Width: 278
VWidth: 0
Flags: HW
HStem: -3 33<12.008 95.6809 177.75 259.98> 555 35<15.0061 95.9852>
VStem: 96 80<30.0927 556>
LayerCount: 3
Fore
SplineSet
176 68 m 2
 176 32 184 30 203 30 c 2
 246 30 l 2
 257 30 260 25 260 12 c 0
 260 -1 255 -3 244 -3 c 0
 226 -3 166 0 137 0 c 0
 105 0 46 -3 20 -3 c 0
 13 -3 12 6 12 12 c 0
 12 24 13 30 29 30 c 2
 72 30 l 2
 87 30 96 32 96 52 c 2
 96 535 l 2
 96 555 94 557 74 557 c 2
 25 556 l 2
 16 556 15 563 15 573 c 0
 15 581 17 590 29 590 c 2
 175 589 l 2
 181 589 181 577 181 573 c 0
 181 558 176 283 176 142 c 2
 176 68 l 2
EndSplineSet
EndChar

StartChar: m
Encoding: 109 109 13
Width: 928
VWidth: 0
Flags: HW
HStem: -8 33<32.1445 103.275> -4 40<370 418.467> -4 36<210.222 288.417 346.539 382 526.319 602.878 658.458 737.783 837.26 916.577> 406 41<21.006 115.73> 419 46<313.988 419.165 627.48 727.275>
VStem: 119 89<37.0822 332.563 343.953 406.25> 119 80<343 406.25> 430 86<42.944 321.784 350 405.398> 745 88<39.2506 402.507>
LayerCount: 3
Fore
SplineSet
875 31 m 0
 882 30 896 29 902 28 c 0
 912 26 917 23 917 12 c 0
 917 -2 906 -4 887 -4 c 0
 874 -4 815 3 787 3 c 0
 750 3 692 -2 676 -2 c 0
 666 -2 660 4 660 12 c 0
 660 28 669 29 683 30 c 0
 693 31 705 32 708 32 c 0
 742 37 746 49 746 61 c 2
 746 346 l 2
 746 399 725 421 680 421 c 0
 622 421 554 367 528 302 c 0
 519 278 517 268 517 248 c 2
 517 99 l 2
 517 55 520 35 560 29 c 0
 568 28 575 28 580 27 c 0
 599 25 602 25 602 13 c 0
 602 2 599 -2 582 -2 c 0
 565 -2 507 3 475 3 c 0
 420 3 373 -2 365 -2 c 0
 355 -2 348 2 348 10 c 0
 348 22 357 29 370 31 c 0
 374 32 390 33 394 34 c 0
 420 38 431 45 431 83 c 0
 431 192 432 239 432 348 c 0
 432 384 425 422 368 422 c 0
 311 422 268 386 239 347 c 0
 213 313 208 294 208 238 c 2
 208 62 l 2
 208 34 218 32 244 30 c 0
 265 28 289 33 289 9 c 0
 289 -3 278 -4 265 -4 c 0
 252 -4 191 2 168 2 c 0
 121 2 75 -5 50 -5 c 0
 40 -5 34 3 34 11 c 0
 34 22 39 26 47 27 c 0
 61 28 80 29 90 31 c 0
 119 37 121 46 121 65 c 0
 121 277 120 150 120 362 c 0
 120 384 109 409 107 409 c 2
 31 411 l 2
 23 411 21 418 21 427 c 0
 21 438 21 447 29 447 c 0
 63 447 136 441 198 441 c 0
 201 441 206 435 206 431 c 0
 205 405 198 358 198 338 c 1
 237 410 317 463 404 463 c 0
 512.505050702 463 516 360.804079209 516 349 c 1
 516 349 597 465 712 465 c 0
 813 465 833 409 833 341 c 2
 833 75 l 2
 833 42 833 37 875 31 c 0
EndSplineSet
EndChar

StartChar: n
Encoding: 110 110 14
Width: 546
VWidth: 0
Flags: HW
HStem: -3 33<28.0398 105.99 189.448 254.991 307.004 371.757 457.87 522.984> 344 32<28.0029 105.918> 354 35<280.079 364.66>
VStem: 108 80<30.9047 270.474 304.897 344> 374 80<32.4027 347.111>
LayerCount: 3
Fore
SplineSet
513 30 m 2xb8
 519 30 523 24 523 16 c 0
 523 0 522 -3 503 -3 c 0
 493 -3 441 0 415 0 c 0
 364 0 344 -3 318 -3 c 0
 311 -3 307 0 307 13 c 0
 307 27 312 30 330 30 c 0
 355 30 374 30 374 62 c 2
 374 287 l 2
 374 326 367 354 329 354 c 0xb8
 258 354 188 265 188 209 c 2
 188 58 l 2
 188 24 214 32 232 30 c 0
 246 28 255 33 255 14 c 0
 255 4 252 -3 237 -3 c 0
 210 -3 192 0 141 0 c 0
 86 0 69 -3 46 -3 c 0
 33 -3 28 1 28 15 c 0
 28 29 34 30 48 30 c 2
 66 30 l 2
 94 30 108 31 108 63 c 2
 108 304 l 2
 108 323 107 344 87 344 c 2
 46 344 l 2
 28 344 28 352 28 360 c 0
 28 374 32 376 45 376 c 4xd8
 62 376 136 374 171 374 c 0
 184 374 185 372 185 362 c 0
 185 351 183 323 183 304 c 0
 183 278 189 293 197 304 c 0
 228 344 279 389 356 389 c 0
 403 389 454 370 454 286 c 2
 454 64 l 2
 454 41 467 30 495 30 c 2
 513 30 l 2xb8
EndSplineSet
EndChar

StartChar: o
Encoding: 111 111 15
Width: 423
VWidth: -4
Flags: W
HStem: -12 38<152.974 269.97> 358 35<157.674 264.153>
VStem: 24 90<93.1739 290.652> 303 91<92.7842 288.537>
LayerCount: 3
Fore
SplineSet
213 393 m 0
 331 393 394 293 394 191 c 0
 394 78 319 -12 208 -12 c 0
 94 -12 24 82 24 197 c 0
 24 306 101 393 213 393 c 0
114 196 m 0
 114 92 128 26 214 26 c 0
 301 26 303 106 303 191 c 0
 303 273 299 358 209 358 c 0
 126 358 114 265 114 196 c 0
EndSplineSet
EndChar

StartChar: p
Encoding: 112 112 16
Width: 485
VWidth: 0
Flags: HWO
HStem: -258 33<26.0262 99.7427 182.846 255.997> -14 32<230.651 335.192> 353 33<28.0072 101 231.128 327.801>
VStem: 101 77<-223.102 43.9855 72.1022 302.19 319.004 354> 374 90<78.9534 283.787>
LayerCount: 3
Fore
SplineSet
295 386 m 0
 399 386 464 287 464 181 c 0
 464 52 382 -14 289 -14 c 0
 242 -14 212 6 195 25 c 0
 185 36 181 44 179 44 c 0
 177 44 178 24 178 20 c 0
 178 -36 178 -149 181 -199 c 0
 181 -205 183 -225 215 -225 c 2
 250 -225 l 2
 255 -225 256 -232 256 -242 c 0
 256 -248 252 -258 246 -258 c 0
 238 -258 184 -255 144 -255 c 0
 103 -255 51 -258 36 -258 c 0
 30 -258 26 -252 26 -244 c 0
 26 -237 26 -225 39 -225 c 2
 63 -225 l 2
 83 -225 101 -223 101 -199 c 2
 101 340 l 2
 101 354 95 354 84 354 c 2
 37 354 l 2
 29 354 28 365 28 370 c 0
 28 378 28 388 39 388 c 2
 39 388 108 384 152 384 c 2
 163 384 l 2
 169 384 175 381 175 374 c 2
 175 338 l 2
 175 325 176 319 177 319 c 0
 179 319 183 329 189 337 c 0
 203 356 234 386 295 386 c 0
286 353 m 0
 214 353 177 294 177 189 c 0
 177 31 250 18 283 18 c 0
 372 18 374 104 374 179 c 0
 374 252 358 353 286 353 c 0
EndSplineSet
EndChar

StartChar: q
Encoding: 113 113 17
Width: 538
VWidth: 0
Flags: HW
HStem: -235 34<288.039 370.728 465.517 551.961> -227 27<299.322 370.562 465.676 551.149> -10 32<194.631 294.538> 426 36<190.763 309.72> 432 20G<398.5 452>
VStem: 27 103<120.17 333.823> 373 89<-197.82 76> 381 81<105.772 342.81 376 451.646>
LayerCount: 3
Fore
SplineSet
250 458 m 0
 303 458 350 425 374 387 c 0
 378 381 381 373 384 373 c 0
 386 373 387 377 387 388 c 2
 387 410 l 2
 387 434 390 450 405 450 c 2
 444 450 l 2x2e
 460 450 460 447 460 426 c 2x35
 462 -160 l 2
 462 -178 463 -199 486 -201 c 0x76
 496 -202 524 -204 535 -205 c 0
 546 -206 552 -209 552 -219 c 0
 552 -235 546 -235 538 -235 c 0xa6
 518 -235 452 -228 416 -228 c 0x66
 367 -228 309 -235 299 -235 c 0
 292 -235 289 -224 289 -217 c 0
 289 -212 294 -204 303 -203 c 0
 312 -202 333 -201 344 -200 c 0
 365 -199 375 -196 375 -176 c 0
 375 -72 378 76 378 76 c 5
 378 76 322 -10 230 -10 c 0
 106 -10 27 99 27 232 c 0
 27 362 122 458 250 458 c 0
250 426 m 0
 148 426 130 318 130 228 c 0
 130 136 149 20 246 20 c 0
 305 20 349 61 368 114 c 0
 379 145 381 181 381 219 c 0x35
 381 252 379 287 370 318 c 0
 353 372 317 426 250 426 c 0
EndSplineSet
EndChar

StartChar: r
Encoding: 114 114 18
Width: 398
VWidth: 0
Flags: W
HStem: -3 33<26.1088 105.562 190.171 269.986> 338 32<28.0015 107.062> 343 43<251.289 324>
VStem: 108 80<30.5892 273.635 306.214 337.978> 295 90<284.921 342.818>
LayerCount: 3
Fore
SplineSet
318 386 m 0xb8
 353 386 385 361 385 328 c 0
 385 300 372 279 336 279 c 0
 308 279 295 295 295 321 c 0
 295 333 299 343 285 343 c 0xb8
 246 343 188 259 188 198 c 2
 188 64 l 2
 188 30 204 30 224 30 c 2
 259 30 l 2
 270 30 270 19 270 11 c 0
 270 3 268 -3 262 -3 c 0
 225 -3 176 0 150 0 c 0
 122 0 48 -3 36 -3 c 0
 28 -3 26 0 26 9 c 0
 26 27 30 30 42 30 c 2
 78 30 l 2
 94 30 108 33 108 65 c 2
 108 305 l 2
 108 335 104 338 84 338 c 2
 36 338 l 2
 28 338 28 346 28 355 c 0
 28 361 30 370 36 370 c 0xd8
 49 370 124 368 171 368 c 0
 183 368 185 366 185 356 c 0
 185 351 182 310 182 306 c 0
 182 301 181 288 189 302 c 0
 208 334 258 386 318 386 c 0xb8
EndSplineSet
EndChar

StartChar: s
Encoding: 115 115 19
Width: 376
VWidth: 0
Flags: HW
HStem: -18 37<123.909 250.922> 432 32<135.902 241.003>
VStem: 33 62<226.503 385.132> 289 60<54.3108 143.647> 300 24<331.047 361.603>
LayerCount: 3
Fore
SplineSet
194 464 m 0xf0
 238 464 269 459 312 437 c 0
 321 433 323 423 323 410 c 0
 323 362 324 350 324 342 c 0
 324 335 317 333 311 333 c 0
 306 333 302 333 300 338 c 0xe8
 285 374 255 433 194 433 c 0
 143 433 95 399 95 351 c 0
 95 303 142 291 193 273 c 0
 269 247 349 224 349 126 c 0
 349 41 267 -16 191 -16 c 0
 131 -16 91 0 42 21 c 0
 36 24 31 28 31 35 c 2
 31 58 l 2
 31 79 29 98 29 120 c 0
 29 130 36 133 43 133 c 0
 62 133 64 116 68 105 c 0
 96 30 148 17 200 17 c 0
 242 17 289 53 289 103 c 0
 289 212 35 152 35 310 c 0
 35 396 109 464 194 464 c 0xf0
EndSplineSet
EndChar

StartChar: t
Encoding: 116 116 20
Width: 309
VWidth: 10
Flags: W
HStem: -14 43<182.018 253.812> 338 37<8.00294 93.9999 174.002 271.995>
VStem: 94 80<35.7088 338 375 487.354> 264 36<40.7608 95.9099>
LayerCount: 3
Fore
SplineSet
300 84 m 0
 300 33 274 -14 205 -14 c 0
 144 -14 92 16 92 91 c 0
 92 113 94 297 94 325 c 0
 94 337 94 338 80 338 c 2
 20 338 l 2
 8 338 8 350 8 357 c 0
 8 371 12 375 22 375 c 2
 83 375 l 2
 94 375 94 375 94 393 c 0
 94 406 92 457 92 467 c 0
 92 481 102.085896873 484.57464375 113 487 c 0
 131 491 158 498 166 498 c 0
 174 498 178 496 178 486 c 0
 178 474 174 393 174 384 c 0
 174 377 177 375 189 375 c 2
 263 375 l 2
 268 375 272 372 272 357 c 0
 272 340 265 338 261 338 c 2
 188 338 l 2
 174 338 174 337 174 323 c 2
 174 95 l 2
 174 60 180 29 220 29 c 0
 240 29 260 44 264 84 c 0
 265 93 272 96 280 96 c 0
 289 96 300 91 300 84 c 0
EndSplineSet
EndChar

StartChar: u
Encoding: 117 117 21
Width: 638
VWidth: 0
Flags: HW
HStem: -16 45<216.431 327.901 528.492 616.883> 414 44<19.0095 108.647 332.243 430.763>
VStem: 110 94<37.756 413.594> 433 95<25.6091 115.195 120.91 414> 443 85<25.6091 117>
LayerCount: 3
Fore
SplineSet
257 29 m 0xe8
 326 29 433 112 433 171 c 2
 433 364 l 2
 433 384 431 414 414 414 c 2
 347 414 l 2
 339 414 332 430 332 439 c 0
 332 447 337 458 345 458 c 0
 379 458 428 456 453 456 c 0
 471 456 500 457 516 457 c 0
 522 457 532 455 532 435 c 0
 532 394 528 219 528 110 c 2
 528 63 l 2xf0
 528 37 532 24 567 24 c 2
 601 24 l 2
 614 24 617 18 617 10 c 0
 617 -2 615 -15 601 -15 c 0
 587 -15 528 -10 512 -10 c 0
 495 -10 466 -11 449 -11 c 0
 438 -11 436 -7 436 1 c 0
 436 8 440 79 443 117 c 1
 443 117 374 -16 238 -16 c 0
 124 -16 110 33 110 106 c 2
 110 373 l 2
 110 393 108 413 84 414 c 2
 55 415 l 2
 32 416 19 415 19 436 c 0
 19 453 32 458 38 458 c 0
 47 458 124 454 191 454 c 0
 208 454 208 445 208 432 c 0
 207 347 204 261 204 176 c 2
 204 139 l 2
 204 69 206 29 257 29 c 0xe8
EndSplineSet
EndChar

StartChar: v
Encoding: 118 118 22
Width: 456
VWidth: 15
Flags: HW
HStem: -19 21G<221.5 230> 340 33<5.04594 65.6719 159.701 214.855 270.063 320.359 377.438 440.994>
DStem2: 164 300 72 311 0.383966 -0.923347<-18.3224 207.246> 254 123 250 4 0.363345 0.931655<-14.6175 202.17>
LayerCount: 3
Fore
SplineSet
225 -19 m 0
 218 -19 209 -19 198 8 c 2
 72 311 l 2
 64 330 57 340 18 340 c 0
 7 340 5 344 5 360 c 0
 5 372 12 373 24 373 c 0
 37 373 76 370 111 370 c 0
 133 370 182 373 202 373 c 0
 211 373 215 371 215 359 c 0
 215 351 211 340 203 340 c 0
 174 340 159 334 159 318 c 0
 159 313 161 307 164 300 c 2
 236 129 l 2
 241 117 244 110 247 110 c 0
 249 110 251 115 254 123 c 2
 313 278 l 2
 317 290 322 303 322 314 c 0
 322 328 314 340 289 340 c 0
 272 340 270 345 270 360 c 0
 270 369 273 373 283 373 c 0
 288 373 322 370 351 370 c 0
 364 370 413 373 428 373 c 0
 436 373 441 369 441 357 c 0
 441 340 433 340 423 340 c 0
 396 340 380 338 367 304 c 2
 250 4 l 2
 241 -18 235 -19 225 -19 c 0
EndSplineSet
EndChar

StartChar: w
Encoding: 119 119 23
Width: 852
VWidth: 0
Flags: HW
HStem: -14 138<266 297.5 598 632> 376 71<417.001 439.999> 420 32<16.0066 77.8351 186.68 259.894 322.083 396.47 513.932 585.94 645.075 714.13 780.061 838.983>
DStem2: 192 369 98 367 0.393291 -0.919414<-27.316 266.079> 307 146 294 15 0.337553 0.941307<-24.3695 256.931> 519 379 440 358 0.374641 -0.92717<-20.6116 279.79> 644 151 677 150 0.346195 0.938163<-31.981 240.403>
LayerCount: 3
Fore
SplineSet
16 435 m 0xc0
 16 450 25 452 40 452 c 0
 52 452 106 447 140 447 c 0xc0
 192 447 230 452 242 452 c 0
 251 452 258 450 258 433 c 0
 258 424 254 420 245 419 c 0
 221 416 185 423 185 396 c 0
 185 390 187 381 192 369 c 2
 282 150 l 2
 289 134 292 124 296 124 c 0
 299 124 301 131 307 146 c 2
 382 350 l 2
 387 363 396 385 396 399 c 0
 396 417 382 420 358 420 c 2
 338 420 l 2
 330 420 322 424 322 430 c 2
 322 439 l 2
 322 449 325 452 336 452 c 0xa0
 347 452 398 447 448 447 c 0xc0
 510 447 551 453 568 453 c 0
 578 453 586 449 586 438 c 0
 586 425 581 420 566 418 c 0
 540 415 513 418 513 399 c 0
 513 395 517 384 519 379 c 2
 615 150 l 2
 623 132 626 122 630 122 c 0
 633 122 637 132 643 151 c 2
 709 336 l 2
 713 347 720 366 720 383 c 0
 720 399 714 414 694 416 c 2
 658 420 l 2
 649 421 645 426 645 434 c 0
 645 444 649 452 661 452 c 0xa0
 667 452 718 447 752 447 c 0xc0
 786 447 818 452 828 452 c 0xa0
 833 452 839 447 839 437 c 0
 839 420 835 421 823 419 c 0
 792 415 772 409 757 368 c 2
 677 150 l 2
 663 113 646 82 624 13 c 0
 617 -8 611 -12 602 -12 c 0
 590 -12 586 -4 579 14 c 2
 440 358 l 2
 435 369 432 376 428 376 c 0
 425 376 422 370 418 358 c 2
 294 15 l 2
 286 -7 286 -14 273 -14 c 0
 259 -14 257 -4 249 14 c 2
 98 367 l 2
 79 413 72 415 33 420 c 0
 25 421 16 424 16 435 c 0xc0
EndSplineSet
EndChar

StartChar: x
Encoding: 120 120 24
Width: 550
VWidth: 0
Flags: HW
HStem: -4 39<8.01458 89.6149 142.019 204.948 268.01 340.311 456.812 526.973> 416 30<30.6731 82.3279 200.005 243.39 343.02 386.998 437.285 514.877> 417 32<7.01163 82.3279 200.206 255.996>
DStem2: 279 286 217 230 0.599618 -0.800287<-142.414 6.8195 63.0123 221.725> 219 205 150 70 0.649575 0.760298<-166.165 2.8262 104.202 263.103>
LayerCount: 3
Fore
SplineSet
107 2 m 0xc0
 60 2 34 -4 22 -4 c 0
 10 -4 8 0 8 15 c 0
 8 34 28 30 50 35 c 0
 84 43 87 51 112 80 c 2
 219 205 l 2
 228 216 226 219 217 230 c 2
 108 370 l 2
 71 417 78 411 31 416 c 0xc0
 23 417 7 419 7 433 c 0
 7 448 15 453 30 453 c 0
 44 453 81 445 147 445 c 0
 218 445 231 449 244 449 c 0
 251 449 256 448 256 433 c 0
 256 424 254 417 245 417 c 2
 227 417 l 2xa0
 207 417 200 413 200 405 c 0
 200 400 203 393 208 385 c 2
 279 286 l 2
 286 276 285 275 293 285 c 0
 310 305 345 344 366 371 c 0
 374 381 387 398 387 408 c 0
 387 412 384 415 378 416 c 2
 358 418 l 2
 349 419 343 422 343 430 c 0
 343 440 346 446 358 446 c 0
 364 446 412 442 434 442 c 0
 468 442 496 446 506 446 c 0
 511 446 515 443 515 433 c 0
 515 414 496 417 484 415 c 0
 453 411 444 413 414 379 c 2
 321 269 l 2
 313 260 308 256 308 252 c 0
 308 248 312 244 319 234 c 2
 459 50 l 2
 474 31 485 34 506 31 c 0
 523 29 527 27 527 17 c 0
 527 0 518 -1 507 -1 c 0
 481 -1 448 4 397 4 c 0
 346 4 290 -3 282 -3 c 0
 272 -3 268 2 268 16 c 0
 268 32 282 29 298 30 c 0
 324 31 342 33 342 56 c 0
 342 59 339 67 338 68 c 2
 258 178 l 2
 250 190 248 191 239 180 c 2
 150 70 l 2
 143 61 142 57 142 52 c 0
 142 34 168 34 190 32 c 0
 201 31 205 24 205 14 c 0
 205 -2 197 -2 188 -2 c 0
 166 -2 146 2 107 2 c 0xc0
EndSplineSet
EndChar

StartChar: y
Encoding: 121 121 25
Width: 510
VWidth: 0
Flags: W
HStem: -256 48<78.5 159.157> 340 33<15.0117 86.4978 191.89 250.916 311.053 362.828 418.312 482.974>
VStem: 12 87<-207.946 -150.401>
DStem2: 196 298 150 196 0.422128 -0.906536<-19.1204 212.528> 161 -184 246 -94 0.374618 0.927179<-29.6115 197 312.788 537.434>
LayerCount: 3
Fore
SplineSet
216 51 m 2
 150 196 l 2
 130 240 118 274 94 313 c 0
 81 333 72 340 58 340 c 2
 26 340 l 2
 18 340 15 350 15 357 c 0
 15 372 19 373 26 373 c 0
 40 373 110 370 137 370 c 0
 168 370 224 373 242 373 c 0
 251 373 251 364 251 350 c 0
 251 340 238 340 230 340 c 0
 203 340 191 332 191 317 c 0
 191 312 193 305 196 298 c 2
 271 126 l 2
 277 112 280 104 283 104 c 0
 286 104 289 111 294 124 c 2
 359 286 l 2
 363 297 364 306 364 314 c 0
 364 330 357 340 327 340 c 0
 312 340 311 347 311 360 c 0
 311 368 312 373 324 373 c 0
 329 373 383 370 398 370 c 0
 412 370 469 373 473 373 c 0
 479 373 483 370 483 359 c 0
 483 347 482 340 465 340 c 0
 439 340 422 339 406 302 c 2
 318 88 l 1
 246 -94 l 2
 215 -170 184 -256 98 -256 c 0
 59 -256 12 -229 12 -191 c 0
 12 -160 35 -144 56 -144 c 0
 78 -144 97 -161 99 -191 c 0
 100 -204 112 -208 121 -208 c 0
 137 -208 156 -194 161 -184 c 0
 193 -126 236 -17 236 -1 c 0
 236 5 226 29 216 51 c 2
EndSplineSet
EndChar

StartChar: z
Encoding: 122 122 26
Width: 394
VWidth: 0
Flags: HW
HStem: 0 30<132.004 293.856> 340 30<91.387 246.997>
VStem: 33 32<258.026 311.729> 332 29<71.0648 106.985>
DStem2: 29 27 141 52 0.570905 0.821016<65.4903 377.212>
LayerCount: 3
Fore
SplineSet
47 258 m 0
 34 258 33 262 33 266 c 0
 33 274 35 306 39 355 c 0
 40 368 40 370 55 370 c 2
 329 370 l 2
 347 370 353 370 353 363 c 0
 353 361 353 357 351 354 c 2
 141 52 l 2
 136 44 132 38 132 35 c 0
 132 31 137 30 150 30 c 2
 230 30 l 2
 307 30 317 68 332 100 c 0
 335 107 339 107 350 107 c 0
 361 107 361 102 361 95 c 0
 361 82 359 54 358 13 c 0
 358 1 356 0 344 0 c 2
 40 0 l 2
 27 0 26 6 26 12 c 2
 26 19 l 2
 26 22 28 26 29 27 c 0
 105 125 174 229 239 322 c 0
 243 327 247 332 247 335 c 0
 247 338 243 340 231 340 c 2
 129 340 l 2
 91 340 78 314 65 271 c 0
 62 260 63 258 47 258 c 0
EndSplineSet
EndChar

StartChar: R
Encoding: 82 82 44
Width: 599
VWidth: 0
Flags: HW
HStem: -9 39<19.058 117.333 224.607 317.991> 419 38<21.5848 116.268> 434 38<314.698 400.5>
VStem: 123 90<346 412.134> 124 94<47.2827 324.887> 355 103<352.533 433.465>
LayerCount: 3
Fore
SplineSet
209 531 m 2
 209 326 l 2
 209 312 209 309 222 309 c 2
 250 309 l 1
 302 313 373 328 373 433 c 0
 373 526 308 545 266 545 c 0
 244 545 209 544 209 531 c 2
46 575 m 0
 72 575 118 571 160 571 c 0
 175.077676693 571 260.568903185 575 301 575 c 0
 342 575 378.033405916 571.591911995 407.999997526 555.462929369 c 0
 449.756827545 532.988061533 477 492.828171839 477 444 c 0
 477 345 400 310 353 298 c 0
 340 294 332 293 332 291 c 0
 332 289 339 288 353 285 c 0
 382 279 421 269 443 256 c 0
 457 247 466 238 470 222 c 0
 482 166 482 133 489 76 c 0
 491 60 498 34 526 34 c 2
 548 34 l 2
 560 34 563 26 563 17 c 0
 563 10 562 0 552 0 c 2
 463 0 l 2
 431 0 393 19 393 52 c 0
 391 261 330 284 265 284 c 2
 222 284 l 2
 210 284 209 283 209 269 c 2
 209 90 l 2
 209 68 214 34 237 34 c 2
 274 34 l 2
 290 34 290 27 290 16 c 0
 290 9 290 -3 275 -3 c 0
 258 -3 210 0 161 0 c 0
 113 0 64 -3 44 -3 c 0
 28 -3 28 7 28 17 c 0
 28 26 33 34 41 34 c 2
 71 34 l 2
 105 34 111 54 111 74 c 2
 111 526 l 2
 111 535 103 538 95 538 c 2
 54 538 l 2
 35 538 28 542 28 560 c 0
 28 571 36 575 46 575 c 0
EndSplineSet
EndChar

StartChar: zero
Encoding: 48 48 53
Width: 176
VWidth: 0
Flags: W
HStem: 185 88<50.4399 125.56>
VStem: 44 88<191.44 266.56>
LayerCount: 3
Fore
SplineSet
44 229 m 0
 44 253 64 273 88 273 c 0
 112 273 132 253 132 229 c 0
 132 205 112 185 88 185 c 0
 64 185 44 205 44 229 c 0
EndSplineSet
EndChar

StartChar: one
Encoding: 49 49 54
Width: 176
VWidth: 0
Flags: W
HStem: 185 88<50.4399 125.56>
VStem: 44 88<191.44 266.56>
LayerCount: 3
Fore
SplineSet
44 229 m 0
 44 253 64 273 88 273 c 0
 112 273 132 253 132 229 c 0
 132 205 112 185 88 185 c 0
 64 185 44 205 44 229 c 0
EndSplineSet
EndChar

StartChar: two
Encoding: 50 50 55
Width: 176
VWidth: 0
Flags: W
HStem: 185 88<50.4399 125.56>
VStem: 44 88<191.44 266.56>
LayerCount: 3
Fore
SplineSet
44 229 m 0
 44 253 64 273 88 273 c 0
 112 273 132 253 132 229 c 0
 132 205 112 185 88 185 c 0
 64 185 44 205 44 229 c 0
EndSplineSet
EndChar

StartChar: three
Encoding: 51 51 56
Width: 176
VWidth: 0
Flags: W
HStem: 185 88<50.4399 125.56>
VStem: 44 88<191.44 266.56>
LayerCount: 3
Fore
SplineSet
44 229 m 0
 44 253 64 273 88 273 c 0
 112 273 132 253 132 229 c 0
 132 205 112 185 88 185 c 0
 64 185 44 205 44 229 c 0
EndSplineSet
EndChar

StartChar: four
Encoding: 52 52 57
Width: 176
VWidth: 0
Flags: W
HStem: 185 88<50.4399 125.56>
VStem: 44 88<191.44 266.56>
LayerCount: 3
Fore
SplineSet
44 229 m 0
 44 253 64 273 88 273 c 0
 112 273 132 253 132 229 c 0
 132 205 112 185 88 185 c 0
 64 185 44 205 44 229 c 0
EndSplineSet
EndChar

StartChar: five
Encoding: 53 53 58
Width: 176
VWidth: 0
Flags: W
HStem: 185 88<50.4399 125.56>
VStem: 44 88<191.44 266.56>
LayerCount: 3
Fore
SplineSet
44 229 m 0
 44 253 64 273 88 273 c 0
 112 273 132 253 132 229 c 0
 132 205 112 185 88 185 c 0
 64 185 44 205 44 229 c 0
EndSplineSet
EndChar

StartChar: six
Encoding: 54 54 59
Width: 176
VWidth: 0
Flags: W
HStem: 185 88<50.4399 125.56>
VStem: 44 88<191.44 266.56>
LayerCount: 3
Fore
SplineSet
44 229 m 0
 44 253 64 273 88 273 c 0
 112 273 132 253 132 229 c 0
 132 205 112 185 88 185 c 0
 64 185 44 205 44 229 c 0
EndSplineSet
EndChar

StartChar: seven
Encoding: 55 55 60
Width: 176
VWidth: 0
Flags: W
HStem: 185 88<50.4399 125.56>
VStem: 44 88<191.44 266.56>
LayerCount: 3
Fore
SplineSet
44 229 m 0
 44 253 64 273 88 273 c 0
 112 273 132 253 132 229 c 0
 132 205 112 185 88 185 c 0
 64 185 44 205 44 229 c 0
EndSplineSet
EndChar

StartChar: eight
Encoding: 56 56 61
Width: 176
VWidth: 0
Flags: W
HStem: 185 88<50.4399 125.56>
VStem: 44 88<191.44 266.56>
LayerCount: 3
Fore
SplineSet
44 229 m 0
 44 253 64 273 88 273 c 0
 112 273 132 253 132 229 c 0
 132 205 112 185 88 185 c 0
 64 185 44 205 44 229 c 0
EndSplineSet
EndChar

StartChar: nine
Encoding: 57 57 62
Width: 176
VWidth: 0
Flags: W
HStem: 185 88<50.4399 125.56>
VStem: 44 88<191.44 266.56>
LayerCount: 3
Fore
SplineSet
44 229 m 0
 44 253 64 273 88 273 c 0
 112 273 132 253 132 229 c 0
 132 205 112 185 88 185 c 0
 64 185 44 205 44 229 c 0
EndSplineSet
EndChar

StartChar: period
Encoding: 46 46 63
Width: 234
VWidth: 0
Flags: HW
LayerCount: 3
Fore
SplineSet
65 33 m 0
 65 63 88 86 118 86 c 0
 148 86 171 63 171 33 c 0
 171 3 148 -20 118 -20 c 0
 88 -20 65 3 65 33 c 0
EndSplineSet
EndChar
